<svg width="512" height="512" viewBox="0 0 512 512" fill="none" xmlns="http://www.w3.org/2000/svg">
<g clip-path="url(#clip0_9_7)">
<rect width="512" height="512" fill="#FBFAFA"/>
<path d="M121.94 403V394.18L133.28 390.82C139.16 389.14 143.64 386.62 146.72 383.26C150.08 379.9 152.74 375.28 154.7 369.4L239.54 124.12H274.4L358.82 371.08C361.06 377.24 363.58 382 366.38 385.36C369.18 388.44 373.66 390.96 379.82 392.92L386.12 394.6V403H279.44V394.6L286.58 392.5C292.74 390.54 296.38 387.46 297.5 383.26C298.9 379.06 298.62 373.88 296.66 367.72L279.02 313.54H186.2L168.14 366.88C166.18 373.04 165.62 378.08 166.46 382C167.3 385.92 170.8 389 176.96 391.24L186.2 394.18V403H121.94ZM190.4 301.36H275.24L234.08 174.94L190.4 301.36Z" fill="black"/>
</g>
<defs>
<clipPath id="clip0_9_7">
<rect width="512" height="512" fill="white"/>
</clipPath>
</defs>
</svg>
